# xmcd CD database file
#
# Track frame offsets:
#	150
#	17979
#	37522
#	54773
#	72559
#	91810
#	118850
#
# Disc length: 1853 seconds
#
# Revision: 0
# Processed by: cddbd v1.5PL3 Copyright (c) Steve Scherf et al.
# Submitted via: CDex 1.51
#
DISCID=50073b07
DTITLE=秋山久美 - プリージン
DYEAR=2002
DGENRE=Pop
TTITLE0=夏の想い出
TTITLE1=明日の風
TTITLE2=HAPPY TIME
TTITLE3=青空の画用紙
TTITLE4=たった10秒の出来事
TTITLE5=ロケット花火
TTITLE6=my destiny
EXTD=YEAR: 2002
EXTT0=
EXTT1=
EXTT2=
EXTT3=
EXTT4=
EXTT5=
EXTT6=
PLAYORDER=
